# xmcd
#
# Track frame offsets: 
#        182
#        16307
#        34232
#        45482
#        60782
#        79382
#        92655
#        113957
#        126707
#        145082
#
# Disc length: 2101 seconds
#
# Revision: 2
# Processed by: cddbd v1.4PL0 Copyright (c) Steve Scherf et al.
# Submitted via: ExactAudioCopy v0.90b4
#
DISCID=8208330a
DTITLE=Townes Van Zandt - Delta Momma Blues
DYEAR=1969
DGENRE=Folk
TTITLE0=FFV
TTITLE1=Delta Momma Blues
TTITLE2=Only Him or Me
TTITLE3=Turnstyled, Junkpiled
TTITLE4=Tower Song
TTITLE5=Come Tomorrow
TTITLE6=Brand New Companion
TTITLE7=Where I Lead Me
TTITLE8=Rake
TTITLE9=Nothin'
EXTD=
EXTT0=
EXTT1=
EXTT2=
EXTT3=
EXTT4=
EXTT5=
EXTT6=
EXTT7=
EXTT8=
EXTT9=
PLAYORDER=
